<svg width="381" height="219" viewBox="0 0 381 219" fill="none" xmlns="http://www.w3.org/2000/svg">
<path d="M52.72 131.48C48.2933 129.453 43.9467 128.44 39.68 128.44C34.7733 128.44 32.32 129.88 32.32 132.76C32.32 134.147 32.8533 135.213 33.92 135.96C34.9867 136.707 36.8533 137.267 39.52 137.64C45.44 138.493 49.68 140.04 52.24 142.28C54.8 144.467 56.08 147.507 56.08 151.4C56.08 155.24 54.5867 158.28 51.6 160.52C48.6667 162.707 44.5067 163.8 39.12 163.8C32.6667 163.8 26.9333 162.467 21.92 159.8L23.92 151.96C28.4533 154.573 33.3333 155.88 38.56 155.88C43.2 155.88 45.52 154.333 45.52 151.24C45.52 149.8 45.04 148.733 44.08 148.04C43.12 147.293 41.2533 146.68 38.48 146.2C32.6133 145.24 28.4 143.667 25.84 141.48C23.3333 139.293 22.08 136.333 22.08 132.6C22.08 128.92 23.52 126.013 26.4 123.88C29.3333 121.693 33.5733 120.6 39.12 120.6C44.6667 120.6 49.8667 121.613 54.72 123.64L52.72 131.48ZM75.3913 121.4V146.2C75.3913 149.773 75.8713 152.227 76.8313 153.56C77.8446 154.84 79.5513 155.48 81.9513 155.48C84.2979 155.48 86.4313 154.307 88.3513 151.96C90.3246 149.56 91.3113 146.76 91.3113 143.56V121.4H101.711V163H91.9513L91.7113 157.16H91.5513C89.9513 159.24 87.9779 160.867 85.6313 162.04C83.2846 163.213 80.8579 163.8 78.3513 163.8C73.8179 163.8 70.4846 162.52 68.3513 159.96C66.2179 157.347 65.1513 153.107 65.1513 147.24V121.4H75.3913ZM112.739 121.4H122.339L122.579 127H122.739C125.832 122.733 129.379 120.6 133.379 120.6C135.992 120.6 138.152 121.133 139.859 122.2C141.565 123.267 143.032 125 144.259 127.4H144.419C147.885 122.867 151.965 120.6 156.659 120.6C161.139 120.6 164.392 121.853 166.419 124.36C168.499 126.813 169.539 130.973 169.539 136.84V163H159.459V139.24C159.459 135.08 159.005 132.28 158.099 130.84C157.245 129.4 155.699 128.68 153.459 128.68C151.539 128.68 149.859 129.693 148.419 131.72C146.979 133.747 146.259 136.253 146.259 139.24V163H136.179V139.24C136.179 135.08 135.725 132.28 134.819 130.84C133.965 129.4 132.419 128.68 130.179 128.68C128.259 128.68 126.579 129.693 125.139 131.72C123.699 133.747 122.979 136.253 122.979 139.24V163H112.739V121.4ZM231.154 112.6V103H242.114V112.6H231.154ZM231.154 163V121.4H242.114V163H231.154ZM255.551 121.4H265.151L265.391 127H265.551C268.645 122.733 272.191 120.6 276.191 120.6C278.805 120.6 280.965 121.133 282.671 122.2C284.378 123.267 285.845 125 287.071 127.4H287.231C290.698 122.867 294.778 120.6 299.471 120.6C303.951 120.6 307.205 121.853 309.231 124.36C311.311 126.813 312.351 130.973 312.351 136.84V163H302.271V139.24C302.271 135.08 301.818 132.28 300.911 130.84C300.058 129.4 298.511 128.68 296.271 128.68C294.351 128.68 292.671 129.693 291.231 131.72C289.791 133.747 289.071 136.253 289.071 139.24V163H278.991V139.24C278.991 135.08 278.538 132.28 277.631 130.84C276.778 129.4 275.231 128.68 272.991 128.68C271.071 128.68 269.391 129.693 267.951 131.72C266.511 133.747 265.791 136.253 265.791 139.24V163H255.551V121.4ZM330.573 138.84H350.093C350.04 135.373 349.16 132.733 347.453 130.92C345.8 129.053 343.453 128.12 340.413 128.12C337.48 128.12 335.133 129.053 333.373 130.92C331.666 132.787 330.733 135.427 330.573 138.84ZM330.573 145.96C330.84 149.107 332.04 151.613 334.173 153.48C336.36 155.293 339.106 156.2 342.413 156.2C346.36 156.2 350.28 155.213 354.173 153.24L356.573 160.6C351.773 162.733 346.706 163.8 341.373 163.8C335.08 163.8 329.96 161.853 326.013 157.96C322.12 154.067 320.173 148.813 320.173 142.2C320.173 135.48 321.986 130.2 325.613 126.36C329.24 122.52 334.146 120.6 340.333 120.6C346.52 120.6 351.32 122.44 354.733 126.12C358.2 129.8 359.933 135.08 359.933 141.96C359.933 143.293 359.853 144.627 359.693 145.96H330.573Z" fill="white"/>
<path d="M5.38477 164.263C5.38477 168.555 10.759 174.379 12.8287 177.201C21.9353 189.619 33.3903 198.832 47.3011 205.47C69.5986 216.111 95.031 215.651 118.905 211.142C155.897 204.154 187.153 179.342 204.022 145.963C217.816 118.668 228.005 88.6988 234.374 58.807C236.694 47.9161 238.582 36.6301 239.115 25.4866C239.362 20.327 239.821 12.2202 236.589 7.58577C229.115 -3.13169 214.585 22.6695 212.441 26.7716C203.447 43.9815 198.525 63.7357 195.338 82.7782C191.688 104.581 191.005 127.118 193.344 149.109C195.229 166.839 201.217 182.585 217.005 192.266C231.628 201.233 248.47 202.172 265.169 201.881C284.253 201.549 302.944 199.227 321.441 194.57C332.554 191.772 343.3 188.622 353.477 183.227C360.685 179.406 371.171 174.602 376.252 168.25" stroke="white" stroke-width="9" stroke-linecap="round"/>
<path d="M67.2686 91.9119C68.4766 90.8382 70.3916 90.2164 71.8062 89.4369C92.707 77.9201 116.434 71.247 139.779 66.978C203.899 55.2524 274.622 56.1312 331.275 91.9119" stroke="white" stroke-width="9" stroke-linecap="round"/>
</svg>
