<svg width="531" height="303" viewBox="0 0 531 303" fill="none" xmlns="http://www.w3.org/2000/svg">
<path d="M65.1841 183.929C65.2746 183.522 65.3198 183.115 65.3198 182.708C65.3198 182.255 65.3198 181.78 65.3198 181.282C65.3198 178.975 64.9805 176.825 64.3018 174.834C63.6683 172.798 62.7407 171.034 61.519 169.541C60.3426 168.002 58.8947 166.803 57.1753 165.943C55.4559 165.038 53.5555 164.586 51.4741 164.586C49.076 164.586 46.9041 164.903 44.9585 165.536C43.0129 166.124 41.3387 167.007 39.936 168.183C38.5786 169.36 37.5153 170.83 36.7461 172.595C35.9769 174.314 35.5923 176.328 35.5923 178.635C35.5923 179.947 35.909 181.305 36.5425 182.708C37.2212 184.065 38.2166 185.354 39.5288 186.576C40.841 187.798 42.4473 188.884 44.3477 189.834C46.2933 190.784 48.5557 191.463 51.1348 191.87C55.9762 192.685 59.9128 193.884 62.9443 195.467C66.0212 197.006 68.4193 198.748 70.1387 200.693C71.9033 202.639 73.1024 204.653 73.7358 206.734C74.3693 208.815 74.686 210.761 74.686 212.571C74.686 213.702 74.5503 214.992 74.2788 216.439C74.0526 217.887 73.6001 219.381 72.9214 220.919C72.2427 222.457 71.2925 223.973 70.0708 225.466C68.8944 226.914 67.356 228.226 65.4556 229.403C63.5552 230.534 61.2702 231.462 58.6006 232.186C55.9762 232.91 52.8542 233.271 49.2344 233.271C48.8724 233.271 48.0579 233.226 46.791 233.136C45.5693 233.045 44.0988 232.751 42.3794 232.253C40.7052 231.756 38.8953 231.009 36.9497 230.014C35.0493 229.018 33.2394 227.616 31.52 225.806C29.8006 223.996 28.2848 221.711 26.9727 218.951C25.7057 216.191 24.8687 212.82 24.4614 208.838L35.5923 208.227C35.909 210.851 36.4746 213.046 37.2891 214.811C38.1488 216.575 39.1216 218.046 40.2075 219.222C41.3387 220.353 42.4925 221.236 43.6689 221.869C44.8906 222.503 46.0218 222.978 47.0625 223.294C48.1484 223.566 49.0534 223.724 49.7773 223.77C50.5465 223.815 50.999 223.837 51.1348 223.837C53.0352 223.792 54.7546 223.475 56.293 222.887C57.8766 222.254 59.2114 221.462 60.2974 220.512C61.3833 219.562 62.2204 218.476 62.8086 217.254C63.3968 215.987 63.6909 214.697 63.6909 213.385C63.6909 212.254 63.4873 211.146 63.0801 210.06C62.6729 208.974 61.9036 207.956 60.7725 207.005C59.6865 206.01 58.1707 205.105 56.2251 204.291C54.3247 203.476 51.8587 202.752 48.8271 202.119C43.9404 201.168 39.9134 199.766 36.7461 197.911C33.624 196.01 31.1354 193.951 29.2803 191.734C27.4251 189.472 26.1356 187.187 25.4116 184.879C24.6877 182.572 24.3257 180.49 24.3257 178.635C24.3257 175.875 24.8008 173.07 25.751 170.219C26.7012 167.323 28.2396 164.699 30.3662 162.346C32.5381 159.948 35.366 158.002 38.8501 156.509C42.3341 154.971 46.6326 154.202 51.7456 154.202C56.5871 154.518 60.9082 155.627 64.709 157.527C66.3379 158.342 67.9215 159.382 69.46 160.649C71.0436 161.871 72.4463 163.387 73.668 165.197C74.8896 167.007 75.8625 169.133 76.5864 171.577C77.3556 173.975 77.7402 176.757 77.7402 179.925C77.7402 180.604 77.695 181.327 77.6045 182.097C77.5592 182.821 77.4914 183.567 77.4009 184.336L65.1841 183.929ZM143.434 163.229L142.009 233.543H133.593L132.71 209.924C131.715 212.91 130.629 215.557 129.453 217.865C128.321 220.127 127.145 222.118 125.923 223.837C124.747 225.512 123.548 226.959 122.326 228.181C121.15 229.358 119.996 230.353 118.865 231.167C116.24 233.023 113.593 234.154 110.924 234.561C107.349 234.561 104.34 233.747 101.897 232.118C99.4988 230.489 97.5532 228.045 96.06 224.788C94.6121 221.53 93.5714 217.48 92.9379 212.639C92.3045 207.797 91.9877 202.164 91.9877 195.739C91.9877 190.807 92.1461 185.513 92.4628 179.857C92.7796 174.156 93.232 168.002 93.8203 161.396L106.173 162.414C104.996 170.332 104.137 177.255 103.594 183.183C103.096 189.11 102.847 194.268 102.847 198.657C102.847 202.865 103.028 206.44 103.39 209.381C103.752 212.277 104.205 214.675 104.747 216.575C105.29 218.43 105.879 219.878 106.512 220.919C107.191 221.96 107.847 222.729 108.48 223.227C109.114 223.724 109.679 224.018 110.177 224.109C110.72 224.199 111.105 224.245 111.331 224.245C113.05 224.245 114.702 223.498 116.286 222.005C117.869 220.512 119.362 218.521 120.765 216.032C122.168 213.544 123.457 210.67 124.634 207.413C125.855 204.155 126.964 200.784 127.959 197.3C128.955 193.771 129.837 190.241 130.606 186.712C131.421 183.137 132.1 179.812 132.643 176.735C133.185 173.658 133.615 170.943 133.932 168.59C134.249 166.192 134.452 164.405 134.543 163.229H143.434ZM222.702 231.032C223.245 227.367 223.697 223.815 224.059 220.376C224.421 216.937 224.693 213.702 224.874 210.67C225.055 207.639 225.168 204.879 225.213 202.39C225.304 199.856 225.349 197.684 225.349 195.875C225.349 189.178 224.851 184.11 223.856 180.671C222.86 177.187 221.277 175.445 219.105 175.445C217.431 175.445 215.53 176.803 213.404 179.518C211.322 182.187 209.241 186.35 207.16 192.006C207.25 193.318 207.318 194.721 207.363 196.214C207.408 197.662 207.431 199.223 207.431 200.897C207.431 205.241 207.273 209.969 206.956 215.082C206.639 220.195 206.051 225.647 205.191 231.439L195.214 232.05C195.848 225.67 196.255 219.946 196.436 214.878C196.617 209.811 196.707 205.422 196.707 201.711C196.707 196.463 196.572 192.074 196.3 188.544C196.029 185.015 195.667 182.187 195.214 180.061C194.807 177.889 194.332 176.35 193.789 175.445C193.246 174.54 192.703 174.088 192.16 174.088C191.165 174.088 189.988 175.129 188.631 177.21C187.319 179.291 185.712 182.368 183.812 186.44C181.911 190.558 180.464 194.517 179.468 198.318C178.473 202.119 177.681 205.852 177.093 209.517C176.55 213.182 176.12 216.801 175.803 220.376C175.486 223.951 175.102 227.548 174.649 231.167L165.351 231.439C165.441 228.181 165.487 224.969 165.487 221.801C165.487 218.634 165.487 215.557 165.487 212.571C165.487 205.376 165.419 198.793 165.283 192.82C165.147 186.848 165.012 181.667 164.876 177.278C164.695 172.165 164.514 167.572 164.333 163.5L176.685 164.043V185.897C177.047 184.631 177.523 183.183 178.111 181.554C178.699 179.88 179.378 178.183 180.147 176.463C180.916 174.699 181.798 172.979 182.794 171.305C183.835 169.586 184.966 168.07 186.187 166.758C187.409 165.4 188.744 164.314 190.192 163.5C191.64 162.686 193.223 162.278 194.943 162.278C197.341 162.278 199.535 163.545 201.526 166.079C203.562 168.568 205.033 172.391 205.938 177.549C207.612 174.382 209.309 171.916 211.028 170.151C212.748 168.387 214.309 167.097 215.711 166.283C217.159 165.423 218.358 164.903 219.308 164.722C220.259 164.541 220.847 164.45 221.073 164.45C222.928 164.45 224.716 164.88 226.435 165.74C228.154 166.599 229.67 168.251 230.982 170.694C232.34 173.092 233.403 176.441 234.172 180.739C234.987 185.038 235.394 190.603 235.394 197.436C235.394 201.915 235.213 206.96 234.851 212.571C234.489 218.136 233.923 224.426 233.154 231.439L222.702 231.032ZM343.971 141.374C343.971 142.505 343.745 143.569 343.293 144.564C342.885 145.514 342.32 146.351 341.596 147.075C340.872 147.754 340.012 148.297 339.017 148.704C338.067 149.111 337.049 149.315 335.963 149.315C334.877 149.315 333.836 149.111 332.841 148.704C331.89 148.297 331.053 147.754 330.329 147.075C329.651 146.351 329.085 145.514 328.633 144.564C328.225 143.569 328.022 142.505 328.022 141.374C328.022 140.288 328.225 139.27 328.633 138.32C329.085 137.324 329.651 136.487 330.329 135.809C331.053 135.085 331.89 134.519 332.841 134.112C333.836 133.705 334.877 133.501 335.963 133.501C337.049 133.501 338.067 133.705 339.017 134.112C340.012 134.519 340.872 135.085 341.596 135.809C342.32 136.487 342.885 137.324 343.293 138.32C343.745 139.27 343.971 140.288 343.971 141.374ZM341.392 163.5L340.238 231.303H330.94L329.99 162.686L341.392 163.5ZM420.592 231.032C421.135 227.367 421.588 223.815 421.95 220.376C422.312 216.937 422.583 213.702 422.764 210.67C422.945 207.639 423.058 204.879 423.104 202.39C423.194 199.856 423.239 197.684 423.239 195.875C423.239 189.178 422.742 184.11 421.746 180.671C420.751 177.187 419.167 175.445 416.995 175.445C415.321 175.445 413.421 176.803 411.294 179.518C409.213 182.187 407.131 186.35 405.05 192.006C405.14 193.318 405.208 194.721 405.254 196.214C405.299 197.662 405.321 199.223 405.321 200.897C405.321 205.241 405.163 209.969 404.846 215.082C404.53 220.195 403.941 225.647 403.082 231.439L393.105 232.05C393.738 225.67 394.145 219.946 394.326 214.878C394.507 209.811 394.598 205.422 394.598 201.711C394.598 196.463 394.462 192.074 394.191 188.544C393.919 185.015 393.557 182.187 393.105 180.061C392.697 177.889 392.222 176.35 391.679 175.445C391.136 174.54 390.593 174.088 390.05 174.088C389.055 174.088 387.879 175.129 386.521 177.21C385.209 179.291 383.603 182.368 381.702 186.44C379.802 190.558 378.354 194.517 377.359 198.318C376.363 202.119 375.571 205.852 374.983 209.517C374.44 213.182 374.01 216.801 373.693 220.376C373.377 223.951 372.992 227.548 372.54 231.167L363.241 231.439C363.332 228.181 363.377 224.969 363.377 221.801C363.377 218.634 363.377 215.557 363.377 212.571C363.377 205.376 363.309 198.793 363.173 192.82C363.038 186.848 362.902 181.667 362.766 177.278C362.585 172.165 362.404 167.572 362.223 163.5L374.576 164.043V185.897C374.938 184.631 375.413 183.183 376.001 181.554C376.589 179.88 377.268 178.183 378.037 176.463C378.806 174.699 379.689 172.979 380.684 171.305C381.725 169.586 382.856 168.07 384.078 166.758C385.299 165.4 386.634 164.314 388.082 163.5C389.53 162.686 391.114 162.278 392.833 162.278C395.231 162.278 397.426 163.545 399.417 166.079C401.453 168.568 402.923 172.391 403.828 177.549C405.502 174.382 407.199 171.916 408.919 170.151C410.638 168.387 412.199 167.097 413.602 166.283C415.05 165.423 416.249 164.903 417.199 164.722C418.149 164.541 418.737 164.45 418.964 164.45C420.819 164.45 422.606 164.88 424.325 165.74C426.045 166.599 427.561 168.251 428.873 170.694C430.23 173.092 431.293 176.441 432.063 180.739C432.877 185.038 433.284 190.603 433.284 197.436C433.284 201.915 433.103 206.96 432.741 212.571C432.379 218.136 431.814 224.426 431.045 231.439L420.592 231.032ZM459.206 193.092C459.115 193.59 459.093 194.087 459.138 194.585C459.183 195.037 459.206 195.513 459.206 196.01C459.206 200.535 459.658 204.358 460.563 207.48C461.468 210.557 462.599 213.114 463.957 215.15C465.359 217.186 466.875 218.747 468.504 219.833C470.178 220.919 471.739 221.733 473.187 222.276C474.635 222.774 475.879 223.068 476.92 223.159C477.961 223.249 478.594 223.294 478.82 223.294C478.775 223.294 479.092 223.272 479.771 223.227C480.449 223.136 481.332 222.955 482.418 222.684C483.549 222.367 484.816 221.892 486.218 221.258C487.621 220.625 489.001 219.743 490.358 218.611C491.761 217.435 493.073 215.987 494.295 214.268C495.517 212.503 496.512 210.354 497.281 207.82L505.629 210.195C504.951 213.001 504.046 215.489 502.915 217.661C501.783 219.833 500.517 221.733 499.114 223.362C497.756 224.991 496.286 226.394 494.702 227.57C493.164 228.701 491.648 229.629 490.155 230.353C486.626 232.163 482.847 233.226 478.82 233.543C474.839 233.543 471.309 232.955 468.233 231.778C465.201 230.557 462.577 228.928 460.359 226.892C458.142 224.855 456.287 222.525 454.794 219.901C453.301 217.277 452.102 214.539 451.197 211.688C450.337 208.793 449.704 205.919 449.296 203.069C448.934 200.173 448.754 197.458 448.754 194.924C448.754 192.571 448.889 189.992 449.161 187.187C449.432 184.382 449.953 181.554 450.722 178.703C451.491 175.853 452.577 173.092 453.98 170.423C455.382 167.753 457.215 165.378 459.477 163.296C461.74 161.215 464.477 159.563 467.69 158.342C470.947 157.075 474.793 156.441 479.228 156.441C479.997 156.441 481.241 156.532 482.961 156.713C484.725 156.849 486.693 157.301 488.865 158.07C491.037 158.794 493.277 159.925 495.585 161.464C497.892 162.957 499.996 165.061 501.897 167.776C503.842 170.491 505.426 173.907 506.648 178.024C507.914 182.142 508.548 187.164 508.548 193.092H459.206ZM478.82 166.826C475.698 167.052 472.825 167.799 470.201 169.065C469.07 169.608 467.938 170.31 466.807 171.169C465.721 171.984 464.703 173.002 463.753 174.224C462.803 175.4 461.966 176.803 461.242 178.432C460.518 180.061 460.02 181.938 459.749 184.065H497.01C496.738 181.395 496.014 178.997 494.838 176.871C493.662 174.744 492.214 172.934 490.494 171.441C488.82 169.948 486.942 168.817 484.861 168.047C482.825 167.233 480.811 166.826 478.82 166.826Z" fill="white"/>
<path d="M4 228.625C4 234.679 11.5788 242.892 14.4975 246.873C27.3398 264.387 43.4937 277.381 63.1109 286.744C94.555 301.751 130.42 301.103 164.087 294.743C216.254 284.888 260.332 249.893 284.121 202.815C303.573 164.318 317.941 122.049 326.923 79.8897C330.195 64.529 332.856 48.6113 333.609 32.8944C333.957 25.6172 334.605 14.1834 330.047 7.64698C319.507 -7.46896 299.016 28.9211 295.993 34.7067C283.309 58.9797 276.369 86.8411 271.873 113.699C266.727 144.449 265.764 176.235 269.062 207.252C271.721 232.258 280.165 254.466 302.429 268.121C323.05 280.768 346.801 282.092 370.35 281.682C397.262 281.213 423.621 277.938 449.706 271.37C465.377 267.425 480.531 262.981 494.883 255.372C505.047 249.983 519.835 243.207 527 234.249" stroke="white" stroke-width="8" stroke-linecap="round"/>
<path d="M91 127C92.7067 125.474 95.4123 124.59 97.4109 123.482C126.941 107.112 160.464 97.6267 193.445 91.5588C284.037 74.8919 383.958 76.141 464 127" stroke="white" stroke-width="8" stroke-linecap="round"/>
</svg>
